<svg xmlns="http://www.w3.org/2000/svg" width="11" height="12" viewBox="0 0 11 12">
    <path fill="#7E7E7E" fill-rule="evenodd" d="M9.768 10.817v-6.62H1.232v6.62h8.536zm0-9.634c.332 0 .62.12.865.36s.367.524.367.851v8.423c0 .327-.122.606-.367.837-.244.23-.533.346-.865.346H1.232c-.342 0-.633-.115-.873-.346A1.12 1.12 0 0 1 0 10.817V2.394c0-.327.12-.61.36-.85.239-.241.53-.361.872-.361h.601V0h1.232v1.183h4.87V0h1.232v1.183h.601zM8.565 5.409V6.59H7.333V5.41h1.232zm-2.464 0V6.59H4.9V5.41H6.1zm-2.434 0V6.59H2.435V5.41h1.232z"/>
</svg>
