<svg xmlns="http://www.w3.org/2000/svg" width="94" height="81" viewBox="0 0 94 81">
    <g fill="none" fill-rule="evenodd">
        <path fill="#D7D8DA" d="M75 13.599a6.968 6.968 0 0 0-2.044-4.95l-6.578-6.598C65.079.747 63.235 0 61.4 0H61v14h14v-.401z"/>
        <path fill="#D7D8DA" fill-rule="nonzero" d="M57.559 48.365a9.382 9.382 0 0 1 2.292-3.657L76 28.903V18.75H59.24c-1.318 0-2.307-1.048-2.307-2.344V0H21.155C17.21 0 14 3.154 14 7.031V72.97C14 76.846 17.21 80 21.155 80h47.626C72.727 80 76 76.846 76 72.969V55.476l-2.621 2.514a9.513 9.513 0 0 1-3.708 2.247l-7.584 2.488-1.156.062a6.02 6.02 0 0 1-4.84-2.442 5.793 5.793 0 0 1-.81-5.278l2.278-6.702zm-31.633-6.178H49.7c1.318 0 2.385 1.049 2.385 2.344 0 1.296-1.067 2.344-2.385 2.344H25.926c-1.319 0-2.385-1.048-2.385-2.344 0-1.295 1.066-2.343 2.385-2.343zm-2.385-7.03c0-1.296 1.066-2.344 2.385-2.344H49.7c1.318 0 2.385 1.048 2.385 2.343 0 1.296-1.067 2.344-2.385 2.344H25.926c-1.319 0-2.385-1.048-2.385-2.344zm0 18.75c0-1.296 1.066-2.344 2.385-2.344H49.7c1.318 0 2.385 1.048 2.385 2.343 0 1.296-1.067 2.344-2.385 2.344H25.926c-1.319 0-2.385-1.048-2.385-2.344zm35.7 11.718c1.318 0 2.385 1.048 2.385 2.344 0 1.295-1.067 2.344-2.386 2.344H44.93c-1.319 0-2.386-1.049-2.386-2.344 0-1.296 1.067-2.344 2.385-2.344H59.24zm-33.315-37.5c-1.319 0-2.385-1.048-2.385-2.344 0-1.295 1.066-2.343 2.385-2.343H59.24c1.319 0 2.386 1.048 2.386 2.343 0 1.296-1.067 2.344-2.386 2.344H25.926z"/>
        <path fill="#17378E" d="M61.47 49l-2.397 7.186c-.359 1.076.666 2.1 1.743 1.74L68 55.529 61.47 49zM79.371 31L64 46.37 70.63 53 86 37.628 79.371 31zM92.555 24.375C91.69 23.5 90.417 23 89.067 23s-2.623.5-3.493 1.377L82 27.973 88.985 35l3.575-3.596c1.921-1.936 1.92-5.089-.005-7.03z"/>
        <g fill="#000">
            <path d="M93.304 31.224l.022-.022a.908.908 0 0 1-.022.022zM93.326 31.202l.033-.033-.033.033zM93.359 31.169c.024-.025.025-.025 0 0z"/>
        </g>
        <path fill="#17378E" fill-rule="nonzero" d="M21 39C9.402 39 0 48.402 0 60c0 11.597 9.402 21 21 21 11.597 0 21-9.403 21-21 0-11.598-9.403-21-21-21zm9.078 24.994h-8.903c-.03 0-.058-.008-.088-.009-.03.002-.057.009-.087.009-.803 0-1.453-.65-1.453-1.453V47.715a1.452 1.452 0 0 1 2.905 0v13.374h7.626a1.452 1.452 0 0 1 0 2.905z"/>
    </g>
</svg>
