<svg xmlns="http://www.w3.org/2000/svg" width="25" height="45" viewBox="0 0 25 45">
    <path fill="#17378E" fill-rule="evenodd" d="M13.443 19.8c2.28.6 4.108 1.24 5.484 1.92 1.887.92 3.321 2.02 4.304 3.3 1.18 1.56 1.769 3.46 1.769 5.7 0 2.44-.845 4.44-2.535 6-1.494 1.4-3.538 2.36-6.132 2.88V45h-7.37v-5.4c-2.516-.56-4.56-1.6-6.133-3.12C1.1 34.8.157 32.64 0 30h5.425c.078 1.6.668 2.84 1.768 3.72 1.258 1.04 3.086 1.56 5.484 1.56s4.186-.52 5.365-1.56c.865-.8 1.298-1.76 1.298-2.88 0-1.36-.472-2.48-1.415-3.36-1.18-1.16-3.165-2.08-5.956-2.76-3.695-.88-6.466-2.08-8.313-3.6-2.123-1.76-3.184-4-3.184-6.72 0-2.32.825-4.3 2.476-5.94C4.481 6.94 6.486 5.92 8.962 5.4V0h7.37v5.52c2.516.6 4.482 1.8 5.897 3.6 1.297 1.68 1.985 3.64 2.063 5.88h-5.424c-.118-3.52-2.182-5.28-6.191-5.28-2.044 0-3.656.43-4.835 1.29-1.18.86-1.769 1.99-1.769 3.39 0 1.2.55 2.22 1.651 3.06 1.1.84 3.007 1.62 5.72 2.34z"/>
</svg>
