<svg xmlns="http://www.w3.org/2000/svg" width="49" height="62" viewBox="0 0 49 62">
    <g fill="none" fill-rule="evenodd">
        <path fill="#17378E" d="M27.261 6.448h-1.94a1.876 1.876 0 0 1-1.875-1.876v-.064A4.355 4.355 0 0 0 19.09.154h-.1a4.355 4.355 0 0 0-4.356 4.354v.064c0 1.035-.84 1.876-1.875 1.876h-1.94a3.739 3.739 0 0 0-3.738 3.739v.074A3.739 3.739 0 0 0 10.819 14h16.442A3.739 3.739 0 0 0 31 10.261v-.074a3.739 3.739 0 0 0-3.739-3.74"/>
        <path fill="#FFF" d="M19.27 6.54a1.27 1.27 0 1 1 0-2.54 1.27 1.27 0 0 1 0 2.54"/>
        <path fill="#17378E" d="M24.697 55.4H3.385A3.386 3.386 0 0 1 0 52.015v-40.63C0 9.515 1.516 8 2.539 8h6.86a4.211 4.211 0 0 0 4.119 5.078h11.054c2.32 0 4.207-1.887 4.207-4.257 0-.282-.031-.556-.083-.821h5.161c2.717 0 4.233 1.515 4.233 3.385v25.437c-.282-.018-.561-.043-.847-.043-1.171 0-2.301.165-3.386.445V17.311H4.232v33.857h19.511a13.46 13.46 0 0 0 .954 4.232"/>
        <path fill="#17378E" d="M38.004 40C31.927 40 27 44.927 27 51.004s4.927 11.003 11.004 11.003 11.004-4.926 11.004-11.003S44.081 40 38.004 40"/>
        <path fill="#FFF" d="M44.962 48.818l-6.771 7.618a1.69 1.69 0 0 1-2.323.197l-4.232-3.386a1.692 1.692 0 0 1-.264-2.379 1.692 1.692 0 0 1 2.379-.265l2.977 2.382 5.704-6.417a1.693 1.693 0 1 1 2.53 2.25"/>
        <g fill="#17378E">
            <path d="M29.666 32H8.333C7.597 32 7 31.552 7 31v-1c0-.552.597-1 1.333-1h21.333c.737 0 1.334.448 1.334 1v1c0 .552-.597 1-1.334 1M29.666 25H8.333C7.597 25 7 24.552 7 24v-1c0-.552.597-1 1.333-1h21.333c.737 0 1.334.448 1.334 1v1c0 .552-.597 1-1.334 1M22.693 39H8.307C7.586 39 7 38.552 7 38v-1c0-.552.586-1 1.307-1h14.386c.721 0 1.307.448 1.307 1v1c0 .552-.586 1-1.307 1M20.635 46H8.363C7.61 46 7 45.552 7 45v-1c0-.552.61-1 1.363-1h12.272c.754 0 1.365.448 1.365 1v1c0 .552-.61 1-1.365 1"/>
        </g>
    </g>
</svg>
