<svg xmlns="http://www.w3.org/2000/svg" width="83" height="83" viewBox="0 0 83 83">
    <g fill="none" fill-rule="nonzero">
        <circle cx="41.5" cy="41.5" r="41.5" fill="#17378E"/>
        <g fill="#F6F6F9">
            <path d="M51 31c0-4.952-4.048-9-9-9s-9 4.048-9 9 4.048 9 9 9 9-4.048 9-9zm-8.238 4.476v1.143c0 .143-.095.238-.238.238h-1.095c-.143 0-.239-.095-.239-.238v-1.095c-1.142-.095-2.047-.953-2.142-2.048 0-.143.095-.238.238-.238h1.095c.095 0 .19.048.19.143.096.333.381.619.762.619h.953c.571 0 1.095-.429 1.143-1 .047-.667-.429-1.238-1.096-1.238h-.714c-1.38 0-2.619-1-2.762-2.381-.143-1.429.905-2.714 2.286-2.857v-1.095c0-.143.095-.239.238-.239h1.095c.143 0 .238.096.238.239v1.095a2.255 2.255 0 0 1 2.143 2.047c0 .143-.095.239-.238.239h-1.095c-.095 0-.19-.048-.19-.143-.096-.334-.382-.62-.763-.62h-.952c-.571 0-1.095.43-1.143 1-.047.667.429 1.239 1.095 1.239h.858c1.523 0 2.761 1.333 2.619 2.904-.143 1.143-1.096 2.096-2.286 2.286zM59.576 34.796c-.279.953-.93 2.477-1.627 4.05.418 1.095.372 2.525-.419 4.097a7.541 7.541 0 0 1-.697 1.143c-.698 1-1.674 2.049-2.697 3.24l-.232.238c-.28.286-.698.381-1.023.143-.419-.286-.465-.81-.14-1.19.093-.096.186-.191.233-.287 1.348-1.524 2.65-2.954 3.208-4.05 1.023-2.048.325-3.382-.651-4.001-.79-.477-1.906-.477-2.51.428-.884 1.334-2.093 2.764-3.256 4.098-1.348 1.572-2.696 3.24-3.44 4.526-.837 1.477-1.953 4.955-2.139 8.575-.093 1.763-.14 3.812-.186 5.05 0 .62.465 1.144 1.07 1.144h7.02c.605 0 1.07-.524 1.07-1.096v-2.048c0-.477.232-.953.604-1.24 2.51-1.762 4.836-3.906 6.184-5.478 2.883-3.43 3.906-13.578 4.045-16.58.186-2.906-3.533-3.573-4.417-.762zM36.719 47.147c-.79-1.329-2.093-2.942-3.44-4.508-1.163-1.329-2.372-2.752-3.256-4.08-.604-.95-1.72-.95-2.51-.428-.977.57-1.674 1.946-.651 3.986.558 1.092 1.813 2.515 3.208 4.034.093.095.186.19.232.284.326.333.233.902-.14 1.187a.835.835 0 0 1-1.022-.143l-.233-.237c-1.069-1.186-1.999-2.23-2.696-3.227-.28-.38-.512-.806-.698-1.139-.79-1.566-.837-2.99-.418-4.08-.698-1.614-1.349-3.085-1.628-4.034-.837-2.8-4.603-2.088-4.463.902.14 2.99 1.209 13.097 4.045 16.513 1.302 1.566 3.673 3.654 6.184 5.457.372.285.604.712.604 1.234v2.04c0 .617.512 1.092 1.07 1.092h7.02c.605 0 1.117-.522 1.07-1.139-.046-1.234-.093-3.274-.186-5.03-.14-3.749-1.209-7.26-2.092-8.684z"/>
        </g>
    </g>
</svg>
