<svg xmlns="http://www.w3.org/2000/svg" width="83" height="83" viewBox="0 0 83 83">
    <g fill="none" fill-rule="nonzero">
        <path fill="#17378E" d="M69.72 13.28a1.999 1.999 0 0 0-2.826 0l-5.654 5.653a1.999 1.999 0 1 0 2.827 2.827l5.654-5.654c.78-.78.78-2.046 0-2.827zM41.453 1.573A1.983 1.983 0 0 0 40.039 1a1.98 1.98 0 0 0-1.988 1.988v7.994a1.98 1.98 0 0 0 1.987 1.988 1.98 1.98 0 0 0 1.988-1.988V2.988c0-.552-.212-1.052-.574-1.414zm39.974 39.974a1.984 1.984 0 0 0-1.414-.574h-7.994a1.98 1.98 0 0 0-1.988 1.987 1.98 1.98 0 0 0 1.988 1.988h7.994A1.98 1.98 0 0 0 82 42.961c0-.552-.212-1.051-.574-1.413zM57 26c-8.619-8.618-23.648-10.274-33.106-.817-12.27 12.271-5.653 24.029-14.244 32.62L25.197 73.35c8.591-8.59 20.349-1.973 32.62-14.244C67.274 49.648 65.618 34.619 57 26zm-5.19 2.054c.965.878 1.278 2.127.331 3.026-.717.763-2.064.805-2.827.088-5.887-4.657-14.425-4.259-19.876 1.193a14.967 14.967 0 0 0-2.65 3.577c-.432 1.02-1.807 1.494-2.783.972-.977-.522-1.338-1.924-.729-2.849a18.837 18.837 0 0 1 3.335-4.527c6.867-6.868 17.748-7.374 25.199-1.48zM13.183 13.28a1.999 1.999 0 1 0-2.827 2.827l5.654 5.654a1.999 1.999 0 1 0 2.827-2.827l-5.654-5.654zm50.884 50.884a1.999 1.999 0 1 0-2.827 2.827l5.654 5.654a1.999 1.999 0 1 0 2.827-2.827l-5.654-5.654zM6.823 60.63l-2.827 2.826 15.548 15.548 2.827-2.827L6.823 60.63zm-5.654 5.653c-1.624 1.624-1.492 4.162 0 5.654l9.894 9.894c1.492 1.492 4.03 1.624 5.654 0L1.169 66.283zm.707 9.188a3.989 3.989 0 0 0 0 5.653 3.989 3.989 0 0 0 5.653 0l-5.653-5.653z"/>
        <g fill="#D8D8D8" stroke="#D7D8DA">
            <path d="M69.736 13.264a2 2 0 0 0-2.828 0l-5.657 5.656a2 2 0 1 0 2.829 2.829l5.656-5.657a2 2 0 0 0 0-2.828zM41.452 1.552a1.984 1.984 0 0 0-1.414-.574 1.98 1.98 0 0 0-1.989 1.988v8a1.98 1.98 0 0 0 1.989 1.988 1.98 1.98 0 0 0 1.989-1.989V2.966c0-.552-.213-1.052-.575-1.414zM81.448 41.548a1.985 1.985 0 0 0-1.414-.575h-8a1.98 1.98 0 0 0-1.988 1.989 1.98 1.98 0 0 0 1.989 1.989h7.999a1.98 1.98 0 0 0 1.988-1.989c0-.552-.212-1.052-.574-1.414zM13.168 13.264a2 2 0 1 0-2.828 2.828l5.656 5.657a2 2 0 1 0 2.829-2.829l-5.657-5.657zM64.08 64.175a2 2 0 1 0-2.829 2.829l5.657 5.657a2 2 0 1 0 2.828-2.829l-5.656-5.657z"/>
        </g>
    </g>
</svg>
