<svg xmlns="http://www.w3.org/2000/svg" width="64" height="76" viewBox="0 0 64 76">
    <g fill="none" fill-rule="nonzero">
        <path fill="#17378E" d="M63.923 27.191C62.82 12.665 51.321 1.137 36.883.08a28.84 28.84 0 0 0-21.96 7.824 29.524 29.524 0 0 0-9.236 21.465 9.82 9.82 0 0 1-.847 3.997L.453 43.148a5.298 5.298 0 0 0-.007 4.27 5.246 5.246 0 0 0 3.14 2.872l2.04.682v7.909c0 2.054.81 4.025 2.254 5.477a7.673 7.673 0 0 0 5.442 2.27h7.913l1.493 5.274a5.602 5.602 0 0 0 2.66 3.392c1.302.728 2.839.901 4.268.482l27.117-7.87a5.587 5.587 0 0 0 3.367-2.68 5.648 5.648 0 0 0 .481-4.292l-3.579-12.541a29.597 29.597 0 0 0 6.881-21.202zM51.608 45.558l-1.17 1.239 4.387 15.492-26.501 7.6-2.625-9.296H13.322a1.76 1.76 0 0 1-1.755-1.712v-9.133a4.258 4.258 0 0 0-2.91-4.036l-2.47-.82 4.018-9.095a15.771 15.771 0 0 0 1.355-6.421 23.479 23.479 0 0 1 7.407-17.135 23.172 23.172 0 0 1 17.508-6.22c11.508.84 20.672 10.027 21.552 21.604a23.28 23.28 0 0 1-6.411 17.94l-.008-.007zm-2.232-19.01l-2.417-.426a12.64 12.64 0 0 0-1.247-3.029l1.409-2.021a1.876 1.876 0 0 0-.208-2.394l-1.447-1.456a1.846 1.846 0 0 0-2.379-.17l-2.009 1.417a12.456 12.456 0 0 0-3.01-1.255l-.415-2.486a1.859 1.859 0 0 0-1.793-1.55h-2.086a1.858 1.858 0 0 0-1.832 1.55l-.424 2.424a12.464 12.464 0 0 0-3.01 1.255l-2-1.356a1.846 1.846 0 0 0-2.379.21l-1.447 1.456a1.876 1.876 0 0 0-.208 2.393l1.409 2.022c-.545.95-.964 1.969-1.247 3.029l-2.41.426a1.864 1.864 0 0 0-1.539 1.844v2.06a1.864 1.864 0 0 0 1.54 1.844l2.409.426c.282 1.06.702 2.078 1.247 3.029l-1.409 2.021a1.876 1.876 0 0 0 .208 2.394l1.447 1.456c.637.642 1.64.73 2.379.21l2.008-1.418c.945.548 1.957.97 3.01 1.255l.423 2.424a1.858 1.858 0 0 0 1.832 1.55h2.079a1.858 1.858 0 0 0 1.831-1.55l.424-2.424a12.456 12.456 0 0 0 3.01-1.255l1.962 1.386a1.846 1.846 0 0 0 2.379-.209l1.447-1.456c.638-.641.725-1.651.208-2.394l-1.41-2.037a12.64 12.64 0 0 0 1.248-3.029l2.417-.426a1.864 1.864 0 0 0 1.54-1.843v-2.06a1.863 1.863 0 0 0-1.54-1.837zm-14.579 8.428a5.526 5.526 0 0 1-5.108-3.44A5.588 5.588 0 0 1 30.9 25.47a5.5 5.5 0 0 1 6.033-1.186 5.563 5.563 0 0 1 3.39 5.16c-.017 3.06-2.486 5.531-5.527 5.531z"/>
        <path fill="#D7D8DA" stroke="#D7D8DA" d="M49.471 26.163l-2.4-.42a12.386 12.386 0 0 0-1.237-2.981l1.398-1.99a1.835 1.835 0 0 0-.206-2.357l-1.437-1.434a1.845 1.845 0 0 0-2.362-.168l-1.994 1.396a12.427 12.427 0 0 0-2.989-1.236l-.412-2.448A1.84 1.84 0 0 0 36.05 13H33.98a1.84 1.84 0 0 0-1.82 1.525l-.42 2.387c-1.045.28-2.05.696-2.988 1.236l-1.987-1.335a1.845 1.845 0 0 0-2.362.206l-1.436 1.434a1.835 1.835 0 0 0-.207 2.356l1.399 1.99a12.378 12.378 0 0 0-1.238 2.983l-2.392.42A1.84 1.84 0 0 0 19 28.015v2.029a1.84 1.84 0 0 0 1.529 1.815l2.392.42a12.37 12.37 0 0 0 1.238 2.981l-1.399 1.99a1.835 1.835 0 0 0 .207 2.357l1.436 1.434c.633.632 1.63.719 2.362.206l1.995-1.396c.938.54 1.942.955 2.988 1.236l.42 2.387A1.84 1.84 0 0 0 33.988 45h2.063a1.84 1.84 0 0 0 1.819-1.525l.42-2.387c1.046-.28 2.05-.696 2.988-1.236l1.95 1.365c.732.513 1.729.427 2.361-.206l1.437-1.433c.633-.631.72-1.626.206-2.357l-1.398-2.006c.54-.935.957-1.938 1.238-2.981l2.4-.42A1.84 1.84 0 0 0 51 30V27.97a1.84 1.84 0 0 0-1.529-1.807z"/>
        <path fill="#FFF" d="M34.5 35a5.5 5.5 0 1 1 0-11 5.5 5.5 0 0 1 0 11z"/>
    </g>
</svg>
