<svg xmlns="http://www.w3.org/2000/svg" width="83" height="83" viewBox="0 0 83 83">
    <g fill="none" fill-rule="nonzero">
        <circle cx="41.5" cy="41.5" r="41.5" fill="#17378E"/>
        <path fill="#F6F6F9" d="M42 21L22 33.123v28.83h5.625V44.403a1.252 1.252 0 0 1 1.133-1.253c.039-.002.078-.002.117 0h26.25c.69 0 1.25.56 1.25 1.253v17.548H62V33.123L42 21zm-5.429 14.286h9.905c.684 0 1.238.64 1.238 1.428 0 .79-.554 1.429-1.238 1.429h-9.905c-.683 0-1.238-.64-1.238-1.429s.555-1.428 1.238-1.428z"/>
        <path fill="#F6F6F9" d="M30 58v4h23.81v-4zM30 52v4h23.81v-4zM30 46v4h23.81v-4z"/>
    </g>
</svg>
