<svg xmlns="http://www.w3.org/2000/svg" width="61" height="68" viewBox="0 0 61 68">
    <g fill="none" fill-rule="nonzero">
        <path fill="#D7D8DA" d="M57.88 11H2.836C1.135 11 0 9.8 0 8s1.135-3 2.837-3h55.326C59.865 5 61 6.2 61 8s-1.419 3-3.12 3zM57.88 28H2.836C1.135 28 0 26.8 0 25s1.135-3 2.837-3h55.326C59.865 22 61 23.2 61 25s-1.419 3-3.12 3zM57.88 46H2.836C1.135 46 0 44.8 0 43s1.135-3 2.837-3h55.326C59.865 40 61 41.2 61 43s-1.419 3-3.12 3zM57.88 64H2.836C1.135 64 0 62.8 0 61s1.135-3 2.837-3h55.326C59.865 58 61 59.2 61 61s-1.419 3-3.12 3z"/>
        <path fill="#17378E" d="M14 15c-1.8 0-3-1.111-3-2.778V2.778C11 1.11 12.2 0 14 0s3 1.111 3 2.778v9.444C17 13.612 15.8 15 14 15zM28 33c-1.8 0-3-1.111-3-2.778v-9.444C25 19.11 26.2 18 28 18s3 1.111 3 2.778v9.444C31 31.612 29.8 33 28 33zM46 50c-1.8 0-3-1.111-3-2.778v-9.444C43 36.11 44.2 35 46 35s3 1.111 3 2.778v9.444C49 48.612 47.8 50 46 50zM23 68c-1.8 0-3-1.111-3-2.778v-9.444C20 54.11 21.2 53 23 53s3 1.111 3 2.778v9.444C26 66.89 24.8 68 23 68z"/>
    </g>
</svg>
