<svg xmlns="http://www.w3.org/2000/svg" width="99" height="96" viewBox="0 0 99 96">
    <g fill="none" fill-rule="nonzero">
        <path fill="#D7D8DA" d="M94.28 43.16a5.94 5.94 0 0 0-3.21.18 36.39 36.39 0 0 0-11.81-18.37 13.24 13.24 0 0 1 2.11-9.93 2.66 2.66 0 0 0-2.67-4c-6.75.87-10.62 4-12.79 6.86a36.22 36.22 0 0 0-7.77-1.3.74.74 0 0 0-.14 0A32.31 32.31 0 0 1 9.39 54.27a.85.85 0 0 0-.06.35 36.29 36.29 0 0 0 12.1 25.41 11.61 11.61 0 0 1 4 8.64v4.28a2.38 2.38 0 0 0 2.38 2.38h14.47a2.38 2.38 0 0 0 2.38-2.38v-3.69h11.5v3.67a2.38 2.38 0 0 0 2.38 2.38h14.52a2.38 2.38 0 0 0 2.38-2.38v-3.26a11.82 11.82 0 0 1 4.06-9 36.37 36.37 0 0 0 11.6-18.31 6 6 0 0 0 3.21.17 6.18 6.18 0 0 0 4.69-6.1v-7.14a6.2 6.2 0 0 0-4.72-6.13zm-17.81.63a3.59 3.59 0 1 1 3.59-3.59 3.59 3.59 0 0 1-3.59 3.61v-.02zM27.58 54.16c14.678 0 26.578-11.898 26.58-26.577C54.162 12.905 42.265 1.003 27.587 1 12.908.996 1.006 12.892 1 27.57c.011 14.677 11.903 26.573 26.58 26.59zm-2.21-40.14v-2a2.12 2.12 0 1 1 4.24 0v1.69a18.5 18.5 0 0 1 4 .57 2.51 2.51 0 0 1-.64 4.93 2.43 2.43 0 0 1-.69-.1 13.3 13.3 0 0 0-3.83-.55c-2.81 0-3.72 1.21-3.72 2.42 0 1.43 1.52 2.34 5.19 3.72 5.15 1.82 7.23 4.2 7.23 8.1 0 3.9-2.73 7.14-7.71 8v2.36a2.12 2.12 0 1 1-4.24 0v-2a20 20 0 0 1-5.2-1 2.51 2.51 0 0 1-1.66-3l.05-.21a2.45 2.45 0 0 1 2.38-1.79c.282 0 .563.048.83.14a14.56 14.56 0 0 0 4.68.8c2.47 0 4.16-1 4.16-2.68 0-1.68-1.39-2.68-4.59-3.77-4.63-1.56-7.79-3.72-7.79-7.92 0-3.81 2.68-6.8 7.31-7.71z"/>
        <path fill="#17378E" stroke="#979797" d="M27.58 54.16c14.678 0 26.578-11.898 26.58-26.577C54.162 12.905 42.265 1.003 27.587 1 12.908.996 1.006 12.892 1 27.57c.011 14.677 11.903 26.573 26.58 26.59z"/>
        <path fill="#FFF" stroke="#979797" d="M25.37 14.02v-2a2.12 2.12 0 1 1 4.24 0v1.69a18.5 18.5 0 0 1 4 .57 2.51 2.51 0 0 1-.64 4.93 2.43 2.43 0 0 1-.69-.1 13.3 13.3 0 0 0-3.83-.55c-2.81 0-3.72 1.21-3.72 2.42 0 1.43 1.52 2.34 5.19 3.72 5.15 1.82 7.23 4.2 7.23 8.1 0 3.9-2.73 7.14-7.71 8v2.36a2.12 2.12 0 1 1-4.24 0v-2a20 20 0 0 1-5.2-1 2.51 2.51 0 0 1-1.66-3l.05-.21a2.45 2.45 0 0 1 2.38-1.79c.282 0 .563.048.83.14a14.56 14.56 0 0 0 4.68.8c2.47 0 4.16-1 4.16-2.68 0-1.68-1.39-2.68-4.59-3.77-4.63-1.56-7.79-3.72-7.79-7.92 0-3.81 2.68-6.8 7.31-7.71z"/>
    </g>
</svg>
