<svg xmlns="http://www.w3.org/2000/svg" width="53" height="53" viewBox="0 0 53 53">
    <path fill="#17378E" fill-rule="nonzero" d="M26.536 0A26.284 26.284 0 0 0 7.819 7.708a26.64 26.64 0 0 0-4.774 30.96L.053 50.642A1.912 1.912 0 0 0 1.899 53h.446l11.968-2.994a26.598 26.598 0 0 0 30.94-4.778 26.512 26.512 0 0 0 5.731-28.866A26.483 26.483 0 0 0 26.536 0zM12.785 31.596a5.477 5.477 0 0 1-5.475-5.478 5.477 5.477 0 0 1 5.475-5.478 5.477 5.477 0 0 1 5.475 5.478 5.477 5.477 0 0 1-5.475 5.478zm13.369 0a5.477 5.477 0 0 1-5.475-5.478 5.477 5.477 0 0 1 5.475-5.478 5.477 5.477 0 0 1 3.871 9.352 5.473 5.473 0 0 1-3.871 1.604zm13.369 0a5.477 5.477 0 0 1-5.475-5.478 5.477 5.477 0 0 1 5.475-5.478 5.48 5.48 0 1 1-.064 10.957h.064z"/>
</svg>
