<svg xmlns="http://www.w3.org/2000/svg" width="1440" height="371" viewBox="0 0 1440 371">
    <g fill="none" fill-rule="evenodd">
        <path fill="#0E1D71" fill-rule="nonzero" d="M-42 0h1496v371H-42z"/>
        <g fill="#FFF">
            <g opacity=".328">
                <path d="M1385.318 328.768l12.884-4.69.653 1.796-12.884 4.69zM1386.492 331.995l12.884-4.69.654 1.796-12.884 4.69zM1384.143 325.54l12.884-4.69.653 1.797-12.884 4.689z"/>
                <path fill-rule="nonzero" d="M1400.876 314.23l-15.128-5.78a.762.762 0 0 0-.937.342l-7.873 14.15a.762.762 0 0 0-.05.631l4.744 13.036c.144.395.581.599.976.455l3.627-1.32-3.785-10.398a.762.762 0 0 1 .456-.977l14.315-5.21a.762.762 0 0 1 .976.455l3.785 10.399 3.627-1.32a.762.762 0 0 0 .455-.977l-4.744-13.035a.762.762 0 0 0-.444-.451zm-11.388 1.763l-2.693.98a.762.762 0 0 1-.521-1.432l2.693-.98a.762.762 0 0 1 .52 1.432z"/>
            </g>
            <g opacity=".328" transform="translate(227 250)">
                <circle cx="15" cy="21" r="2"/>
                <circle cx="5" cy="21" r="2"/>
                <path d="M32.112 21h-8.224c-.49 0-.888-.4-.888-.895V.895C23 .4 23.397 0 23.888 0c.49 0 .887.4.887.895V19.21h7.337c.49 0 .888.4.888.894a.891.891 0 0 1-.888.895z"/>
                <path fill-rule="nonzero" d="M20.776 13.074C18.89 10.001 13.93 1.766 13.88 1.684A1.414 1.414 0 0 0 12.673 1H4.639c-.775 0-1.406.63-1.406 1.403v7.717H.972a.972.972 0 0 0-.972.97v8.941c0 .534.436.969.972.969H1.99a.238.238 0 0 0 .239-.238c0-1.84 1.5-3.336 3.345-3.336a3.344 3.344 0 0 1 3.346 3.336.238.238 0 0 0 .239.238h2.682a.238.238 0 0 0 .24-.238c0-1.84 1.5-3.336 3.345-3.336a3.344 3.344 0 0 1 3.345 3.336c0 .132.107.238.239.238h.728c.696 0 1.262-.564 1.262-1.258v-6.034c0-.247-.116-.457-.224-.634zm-7.982-.015v-1.304a.406.406 0 0 0-.407-.405H10.08V7.51a.406.406 0 0 0-.406-.405H8.386a.406.406 0 0 0-.406.405v5.548H6.046V3.805h5.829l5.546 9.254h-4.627z"/>
                <path d="M33 17.528a.43.43 0 0 1-.426.434h-6.107a.43.43 0 0 1-.426-.434v-6.203c0-.24.19-.433.426-.433h6.107a.43.43 0 0 1 .426.433v6.203zM33 8.686a.43.43 0 0 1-.426.433h-6.107a.43.43 0 0 1-.426-.433V2.483c0-.24.19-.433.426-.433h6.107a.43.43 0 0 1 .426.433v6.203z"/>
            </g>
            <g opacity=".328">
                <path d="M1262.306 178.313a17.485 17.485 0 0 1-2.709-3.016l-2.43-3.435a1.53 1.53 0 0 0-.772-.571l-4.746-1.552c-.767-.251-1.607.123-1.877.878a1.53 1.53 0 0 0 .967 1.96l2.842.93a1.74 1.74 0 0 1 1.046.945.558.558 0 0 1-.577.789l-4.594-.604a3.145 3.145 0 0 1-2.25-1.458l-3.612-5.784c-.441-.708-1.362-.932-2.055-.501-.694.431-.899 1.354-.457 2.061l5.308 8.506c.178.284.444.503.756.622l8.193 3.108a9.37 9.37 0 0 1 2.872 1.734l.898.791c.524.462 1.286.511 1.847.118l2.657-1.86c.283-.198.501-.482.597-.817a1.54 1.54 0 0 0-.466-1.577l-1.438-1.267zM1264.625 176.69a17.485 17.485 0 0 0-1.908-3.578l-2.396-3.458a1.53 1.53 0 0 1-.273-.921l.165-4.991c.027-.807.666-1.468 1.467-1.463a1.53 1.53 0 0 1 1.511 1.579l-.098 2.988a1.74 1.74 0 0 0 .53 1.306c.32.309.844.156.94-.272l1.002-4.523a3.145 3.145 0 0 0-.599-2.614l-4.201-5.372c-.514-.656-.41-1.598.232-2.103.643-.504 1.58-.38 2.094.276l6.177 7.898c.206.264.321.589.326.922l.119 8.763a9.371 9.371 0 0 0 .647 3.292l.436 1.113c.255.65.04 1.384-.521 1.777l-2.657 1.86a1.516 1.516 0 0 1-.972.282 1.54 1.54 0 0 1-1.322-.977l-.7-1.785zM1256.946 163.52l-1.166-6.512a1.524 1.524 0 0 0-1.73-1.243l-6.445 1.047a1.466 1.466 0 0 0-1.2 1.719l1.166 6.512a1.524 1.524 0 0 0 1.73 1.243l6.445-1.046c.224-.037.427-.122.6-.243.454-.318.706-.885.6-1.476z"/>
            </g>
            <g opacity=".328">
                <path d="M716.073 136.562c-.038-1.354.082-2.71.358-4.038l.854-4.12a1.53 1.53 0 0 0-.109-.954l-2.101-4.53c-.34-.732-1.186-1.09-1.923-.773a1.53 1.53 0 0 0-.773 2.044l1.258 2.712c.206.443.214.957.022 1.41a.558.558 0 0 1-.97.115l-2.692-3.77a3.145 3.145 0 0 1-.47-2.641l1.77-6.586c.215-.805-.248-1.632-1.037-1.845-.789-.213-1.603.266-1.819 1.072l-2.6 9.683c-.087.324-.066.668.06.977l3.315 8.112a9.37 9.37 0 0 1 .69 3.283l.034 1.196c.02.698.504 1.289 1.174 1.431l3.172.675c.338.071.694.037 1.005-.121a1.54 1.54 0 0 0 .835-1.416l-.053-1.916zM718.841 137.15a17.485 17.485 0 0 0 1.316-3.834l.894-4.11a1.53 1.53 0 0 1 .488-.829l3.763-3.283c.608-.53 1.527-.514 2.07.075a1.53 1.53 0 0 1-.124 2.182l-2.253 1.966a1.74 1.74 0 0 0-.593 1.279.558.558 0 0 0 .84.5l3.991-2.35a3.145 3.145 0 0 0 1.503-2.221l1.063-6.736c.13-.824.89-1.39 1.697-1.264.808.126 1.356.895 1.226 1.719l-1.563 9.903a1.534 1.534 0 0 1-.453.868l-6.327 6.063a9.371 9.371 0 0 0-1.966 2.718l-.517 1.079c-.302.63-.985.973-1.655.83l-3.172-.674a1.516 1.516 0 0 1-.869-.519 1.54 1.54 0 0 1-.187-1.633l.828-1.728zM723.235 122.554l3.968-5.294a1.524 1.524 0 0 0-.271-2.114l-5.161-4a1.466 1.466 0 0 0-2.076.295l-3.968 5.294a1.524 1.524 0 0 0 .272 2.114l5.16 4c.18.138.38.229.588.273a1.477 1.477 0 0 0 1.488-.568z"/>
            </g>
            <g opacity=".328">
                <path d="M409.534 322.889l12.324 6.01-.838 1.718-12.323-6.01zM408.029 325.975l12.323 6.01-.837 1.718-12.324-6.01zM411.04 319.801l12.323 6.01-.837 1.718-12.324-6.01z"/>
                <path fill-rule="nonzero" d="M430.8 323.981l-6.351-14.896a.762.762 0 0 0-.897-.438l-15.648 4.167a.762.762 0 0 0-.489.402l-6.081 12.468a.762.762 0 0 0 .35 1.019l3.47 1.691 4.85-9.945a.762.762 0 0 1 1.019-.351l13.692 6.678c.378.185.535.64.351 1.019-.162.332-4.694 9.623-4.85 9.946l3.468 1.691a.762.762 0 0 0 1.019-.35l6.08-12.468a.762.762 0 0 0 .017-.633zm-9.18-6.967l-2.575-1.257a.762.762 0 0 1 .668-1.369l2.576 1.256a.762.762 0 0 1-.668 1.37z"/>
            </g>
            <g opacity=".328" transform="rotate(-47 288.333 -128.952)">
                <circle cx="15" cy="21" r="2"/>
                <circle cx="5" cy="21" r="2"/>
                <path d="M32.112 21h-8.224c-.49 0-.888-.4-.888-.895V.895C23 .4 23.397 0 23.888 0c.49 0 .887.4.887.895V19.21h7.337c.49 0 .888.4.888.894a.891.891 0 0 1-.888.895z"/>
                <path fill-rule="nonzero" d="M20.776 13.074C18.89 10.001 13.93 1.766 13.88 1.684A1.414 1.414 0 0 0 12.673 1H4.639c-.775 0-1.406.63-1.406 1.403v7.717H.972a.972.972 0 0 0-.972.97v8.941c0 .534.436.969.972.969H1.99a.238.238 0 0 0 .239-.238c0-1.84 1.5-3.336 3.345-3.336a3.344 3.344 0 0 1 3.346 3.336.238.238 0 0 0 .239.238h2.682a.238.238 0 0 0 .24-.238c0-1.84 1.5-3.336 3.345-3.336a3.344 3.344 0 0 1 3.345 3.336c0 .132.107.238.239.238h.728c.696 0 1.262-.564 1.262-1.258v-6.034c0-.247-.116-.457-.224-.634zm-7.982-.015v-1.304a.406.406 0 0 0-.407-.405H10.08V7.51a.406.406 0 0 0-.406-.405H8.386a.406.406 0 0 0-.406.405v5.548H6.046V3.805h5.829l5.546 9.254h-4.627z"/>
                <path d="M33 17.528a.43.43 0 0 1-.426.434h-6.107a.43.43 0 0 1-.426-.434v-6.203c0-.24.19-.433.426-.433h6.107a.43.43 0 0 1 .426.433v6.203zM33 8.686a.43.43 0 0 1-.426.433h-6.107a.43.43 0 0 1-.426-.433V2.483c0-.24.19-.433.426-.433h6.107a.43.43 0 0 1 .426.433v6.203z"/>
            </g>
            <g opacity=".328">
                <path d="M331.073 184.228c-.038-1.354.082-2.71.358-4.038l.854-4.12a1.53 1.53 0 0 0-.109-.954l-2.101-4.53c-.34-.732-1.186-1.09-1.923-.773a1.53 1.53 0 0 0-.773 2.044l1.258 2.712c.206.443.214.957.022 1.41a.558.558 0 0 1-.97.115l-2.692-3.77a3.145 3.145 0 0 1-.47-2.641l1.77-6.586c.215-.805-.248-1.632-1.037-1.845-.789-.213-1.603.266-1.819 1.071l-2.6 9.684c-.087.324-.066.668.06.977l3.315 8.112a9.37 9.37 0 0 1 .69 3.283l.034 1.196c.02.698.504 1.289 1.174 1.431l3.172.675c.338.071.694.037 1.005-.121a1.54 1.54 0 0 0 .835-1.416l-.053-1.916zM333.841 184.817a17.485 17.485 0 0 0 1.316-3.835l.894-4.111a1.53 1.53 0 0 1 .488-.828l3.763-3.283c.608-.53 1.527-.514 2.07.075a1.53 1.53 0 0 1-.124 2.182l-2.253 1.966a1.74 1.74 0 0 0-.593 1.279.558.558 0 0 0 .84.5l3.991-2.35a3.145 3.145 0 0 0 1.503-2.221l1.063-6.736c.13-.824.89-1.39 1.697-1.264.808.126 1.356.895 1.226 1.718l-1.563 9.904a1.534 1.534 0 0 1-.453.868l-6.327 6.063a9.371 9.371 0 0 0-1.966 2.718l-.517 1.079c-.302.63-.985.973-1.655.83l-3.172-.674a1.516 1.516 0 0 1-.869-.519 1.54 1.54 0 0 1-.187-1.633l.828-1.728zM338.235 170.22l3.968-5.294a1.524 1.524 0 0 0-.271-2.114l-5.161-4a1.466 1.466 0 0 0-2.076.295l-3.968 5.294a1.524 1.524 0 0 0 .272 2.114l5.16 4c.18.138.38.229.588.273a1.477 1.477 0 0 0 1.488-.568z"/>
            </g>
            <g opacity=".328">
                <path d="M87.547 184.636a17.485 17.485 0 0 1-3.148-2.555l-2.937-3.012a1.53 1.53 0 0 0-.853-.443l-4.93-.79c-.797-.129-1.568.372-1.716 1.16a1.53 1.53 0 0 0 1.261 1.785l2.953.473a1.74 1.74 0 0 1 1.18.77.558.558 0 0 1-.446.87l-4.631.122a3.145 3.145 0 0 1-2.452-1.087l-4.471-5.15c-.547-.629-1.491-.706-2.109-.172-.618.535-.675 1.478-.129 2.107l6.574 7.57c.22.254.517.429.844.497l8.579 1.788a9.37 9.37 0 0 1 3.107 1.264l1.01.64c.59.375 1.35.304 1.844-.172l2.333-2.253c.248-.24.42-.555.461-.9a1.54 1.54 0 0 0-.706-1.484l-1.618-1.028zM89.582 182.67a17.485 17.485 0 0 0-2.443-3.235l-2.908-3.04a1.53 1.53 0 0 1-.413-.867l-.618-4.956c-.1-.8.427-1.553 1.22-1.674a1.53 1.53 0 0 1 1.74 1.323l.37 2.967c.06.485.325.925.728 1.207a.558.558 0 0 0 .884-.416l.284-4.624a3.145 3.145 0 0 0-1.001-2.488l-4.99-4.648c-.61-.569-.654-1.515-.1-2.114.557-.599 1.501-.623 2.112-.055l7.336 6.834c.245.229.41.532.466.86l1.488 8.637a9.371 9.371 0 0 0 1.154 3.15l.606 1.031c.353.603.256 1.36-.237 1.836l-2.333 2.253c-.249.24-.57.4-.916.43a1.54 1.54 0 0 1-1.459-.758l-.97-1.653zM79.938 170.865l-2.17-6.25a1.524 1.524 0 0 0-1.904-.957l-6.201 2.042a1.466 1.466 0 0 0-.917 1.886l2.17 6.25a1.524 1.524 0 0 0 1.904.957l6.202-2.042c.215-.071.402-.187.555-.334.398-.385.558-.984.361-1.552z"/>
            </g>
            <g opacity=".328">
                <path d="M816.145 309.131h13.711v1.911h-13.711zM816.145 312.565h13.711v1.911h-13.711zM816.145 305.696h13.711v1.911h-13.711z"/>
                <path fill-rule="nonzero" d="M835.737 300.79L823.5 290.187a.762.762 0 0 0-.998 0l-12.238 10.605a.762.762 0 0 0-.263.575v13.872c0 .421.341.762.762.762h3.86v-11.066c0-.42.34-.761.76-.761h15.235c.42 0 .762.34.762.761V316h3.86c.42 0 .761-.341.761-.762v-13.872a.762.762 0 0 0-.263-.575zm-11.304-2.238h-2.866a.762.762 0 0 1 0-1.523h2.866a.762.762 0 0 1 0 1.523z"/>
                <path fill-rule="nonzero" d="M835.737 300.79L823.5 290.187a.762.762 0 0 0-.998 0l-12.238 10.605a.762.762 0 0 0-.263.575v13.872c0 .421.341.762.762.762h3.86v-11.066c0-.42.34-.761.76-.761h15.235c.42 0 .762.34.762.761V316h3.86c.42 0 .761-.341.761-.762v-13.872a.762.762 0 0 0-.263-.575zm-11.304-2.238h-2.866a.762.762 0 0 1 0-1.523h2.866a.762.762 0 0 1 0 1.523z"/>
            </g>
            <g opacity=".328">
                <path d="M57.145 322.131h13.711v1.911H57.145zM57.145 325.565h13.711v1.911H57.145zM57.145 318.696h13.711v1.911H57.145z"/>
                <path fill-rule="nonzero" d="M76.737 313.79L64.5 303.187a.762.762 0 0 0-.998 0l-12.238 10.605a.762.762 0 0 0-.263.575v13.872c0 .421.341.762.762.762h3.86v-11.066c0-.42.34-.761.76-.761h15.235c.42 0 .762.34.762.761V329h3.86c.42 0 .761-.341.761-.762v-13.872a.762.762 0 0 0-.263-.575zm-11.304-2.238h-2.866a.762.762 0 0 1 0-1.523h2.866a.762.762 0 0 1 0 1.523z"/>
                <path fill-rule="nonzero" d="M76.737 313.79L64.5 303.187a.762.762 0 0 0-.998 0l-12.238 10.605a.762.762 0 0 0-.263.575v13.872c0 .421.341.762.762.762h3.86v-11.066c0-.42.34-.761.76-.761h15.235c.42 0 .762.34.762.761V329h3.86c.42 0 .761-.341.761-.762v-13.872a.762.762 0 0 0-.263-.575zm-11.304-2.238h-2.866a.762.762 0 0 1 0-1.523h2.866a.762.762 0 0 1 0 1.523z"/>
            </g>
            <g opacity=".328">
                <path d="M470.436 129.332l11.627-7.266 1.013 1.62-11.628 7.267zM472.255 132.244l11.628-7.266 1.013 1.621-11.628 7.266zM468.615 126.419l11.628-7.266 1.013 1.62-11.628 7.267z"/>
                <path fill-rule="nonzero" d="M482.63 111.877l-15.997-2.508a.762.762 0 0 0-.846.529l-4.76 15.478a.762.762 0 0 0 .083.628l7.35 11.764a.762.762 0 0 0 1.05.242l3.273-2.045-5.864-9.384a.762.762 0 0 1 .243-1.05l12.92-8.073a.762.762 0 0 1 1.049.242l5.864 9.384 3.273-2.045a.762.762 0 0 0 .242-1.05l-7.351-11.763a.762.762 0 0 0-.528-.35zm-10.772 4.092l-2.43 1.518a.762.762 0 0 1-.807-1.291l2.43-1.52a.762.762 0 0 1 .807 1.293z"/>
                <path fill-rule="nonzero" d="M482.63 111.877l-15.997-2.508a.762.762 0 0 0-.846.529l-4.76 15.478a.762.762 0 0 0 .083.628l7.35 11.764a.762.762 0 0 0 1.05.242l3.273-2.045-5.864-9.384a.762.762 0 0 1 .243-1.05l12.92-8.073a.762.762 0 0 1 1.049.242l5.864 9.384 3.273-2.045a.762.762 0 0 0 .242-1.05l-7.351-11.763a.762.762 0 0 0-.528-.35zm-10.772 4.092l-2.43 1.518a.762.762 0 0 1-.807-1.291l2.43-1.52a.762.762 0 0 1 .807 1.293z"/>
            </g>
            <g opacity=".328" transform="rotate(37 353.583 1637.784)">
                <circle cx="15" cy="21" r="2"/>
                <circle cx="5" cy="21" r="2"/>
                <path d="M32.112 21h-8.224c-.49 0-.888-.4-.888-.895V.895C23 .4 23.397 0 23.888 0c.49 0 .887.4.887.895V19.21h7.337c.49 0 .888.4.888.894a.891.891 0 0 1-.888.895z"/>
                <path fill-rule="nonzero" d="M20.776 13.074C18.89 10.001 13.93 1.766 13.88 1.684A1.414 1.414 0 0 0 12.673 1H4.639c-.775 0-1.406.63-1.406 1.403v7.717H.972a.972.972 0 0 0-.972.97v8.941c0 .534.436.969.972.969H1.99a.238.238 0 0 0 .239-.238c0-1.84 1.5-3.336 3.345-3.336a3.344 3.344 0 0 1 3.346 3.336.238.238 0 0 0 .239.238h2.682a.238.238 0 0 0 .24-.238c0-1.84 1.5-3.336 3.345-3.336a3.344 3.344 0 0 1 3.345 3.336c0 .132.107.238.239.238h.728c.696 0 1.262-.564 1.262-1.258v-6.034c0-.247-.116-.457-.224-.634zm-7.982-.015v-1.304a.406.406 0 0 0-.407-.405H10.08V7.51a.406.406 0 0 0-.406-.405H8.386a.406.406 0 0 0-.406.405v5.548H6.046V3.805h5.829l5.546 9.254h-4.627z"/>
                <path d="M33 17.528a.43.43 0 0 1-.426.434h-6.107a.43.43 0 0 1-.426-.434v-6.203c0-.24.19-.433.426-.433h6.107a.43.43 0 0 1 .426.433v6.203zM33 8.686a.43.43 0 0 1-.426.433h-6.107a.43.43 0 0 1-.426-.433V2.483c0-.24.19-.433.426-.433h6.107a.43.43 0 0 1 .426.433v6.203z"/>
            </g>
            <g opacity=".328" transform="rotate(-61 804.734 -1089.166)">
                <circle cx="15" cy="21" r="2"/>
                <circle cx="5" cy="21" r="2"/>
                <path d="M32.112 21h-8.224c-.49 0-.888-.4-.888-.895V.895C23 .4 23.397 0 23.888 0c.49 0 .887.4.887.895V19.21h7.337c.49 0 .888.4.888.894a.891.891 0 0 1-.888.895z"/>
                <path fill-rule="nonzero" d="M20.776 13.074C18.89 10.001 13.93 1.766 13.88 1.684A1.414 1.414 0 0 0 12.673 1H4.639c-.775 0-1.406.63-1.406 1.403v7.717H.972a.972.972 0 0 0-.972.97v8.941c0 .534.436.969.972.969H1.99a.238.238 0 0 0 .239-.238c0-1.84 1.5-3.336 3.345-3.336a3.344 3.344 0 0 1 3.346 3.336.238.238 0 0 0 .239.238h2.682a.238.238 0 0 0 .24-.238c0-1.84 1.5-3.336 3.345-3.336a3.344 3.344 0 0 1 3.345 3.336c0 .132.107.238.239.238h.728c.696 0 1.262-.564 1.262-1.258v-6.034c0-.247-.116-.457-.224-.634zm-7.982-.015v-1.304a.406.406 0 0 0-.407-.405H10.08V7.51a.406.406 0 0 0-.406-.405H8.386a.406.406 0 0 0-.406.405v5.548H6.046V3.805h5.829l5.546 9.254h-4.627z"/>
                <path d="M33 17.528a.43.43 0 0 1-.426.434h-6.107a.43.43 0 0 1-.426-.434v-6.203c0-.24.19-.433.426-.433h6.107a.43.43 0 0 1 .426.433v6.203zM33 8.686a.43.43 0 0 1-.426.433h-6.107a.43.43 0 0 1-.426-.433V2.483c0-.24.19-.433.426-.433h6.107a.43.43 0 0 1 .426.433v6.203z"/>
            </g>
            <g opacity=".328" transform="rotate(37 -90.535 1088.495)">
                <circle cx="15" cy="21" r="2"/>
                <circle cx="5" cy="21" r="2"/>
                <path d="M32.112 21h-8.224c-.49 0-.888-.4-.888-.895V.895C23 .4 23.397 0 23.888 0c.49 0 .887.4.887.895V19.21h7.337c.49 0 .888.4.888.894a.891.891 0 0 1-.888.895z"/>
                <path fill-rule="nonzero" d="M20.776 13.074C18.89 10.001 13.93 1.766 13.88 1.684A1.414 1.414 0 0 0 12.673 1H4.639c-.775 0-1.406.63-1.406 1.403v7.717H.972a.972.972 0 0 0-.972.97v8.941c0 .534.436.969.972.969H1.99a.238.238 0 0 0 .239-.238c0-1.84 1.5-3.336 3.345-3.336a3.344 3.344 0 0 1 3.346 3.336.238.238 0 0 0 .239.238h2.682a.238.238 0 0 0 .24-.238c0-1.84 1.5-3.336 3.345-3.336a3.344 3.344 0 0 1 3.345 3.336c0 .132.107.238.239.238h.728c.696 0 1.262-.564 1.262-1.258v-6.034c0-.247-.116-.457-.224-.634zm-7.982-.015v-1.304a.406.406 0 0 0-.407-.405H10.08V7.51a.406.406 0 0 0-.406-.405H8.386a.406.406 0 0 0-.406.405v5.548H6.046V3.805h5.829l5.546 9.254h-4.627z"/>
                <path d="M33 17.528a.43.43 0 0 1-.426.434h-6.107a.43.43 0 0 1-.426-.434v-6.203c0-.24.19-.433.426-.433h6.107a.43.43 0 0 1 .426.433v6.203zM33 8.686a.43.43 0 0 1-.426.433h-6.107a.43.43 0 0 1-.426-.433V2.483c0-.24.19-.433.426-.433h6.107a.43.43 0 0 1 .426.433v6.203z"/>
            </g>
            <g opacity=".328" transform="rotate(37 223.903 1970.3)">
                <circle cx="15" cy="21" r="2"/>
                <circle cx="5" cy="21" r="2"/>
                <path d="M32.112 21h-8.224c-.49 0-.888-.4-.888-.895V.895C23 .4 23.397 0 23.888 0c.49 0 .887.4.887.895V19.21h7.337c.49 0 .888.4.888.894a.891.891 0 0 1-.888.895z"/>
                <path fill-rule="nonzero" d="M20.776 13.074C18.89 10.001 13.93 1.766 13.88 1.684A1.414 1.414 0 0 0 12.673 1H4.639c-.775 0-1.406.63-1.406 1.403v7.717H.972a.972.972 0 0 0-.972.97v8.941c0 .534.436.969.972.969H1.99a.238.238 0 0 0 .239-.238c0-1.84 1.5-3.336 3.345-3.336a3.344 3.344 0 0 1 3.346 3.336.238.238 0 0 0 .239.238h2.682a.238.238 0 0 0 .24-.238c0-1.84 1.5-3.336 3.345-3.336a3.344 3.344 0 0 1 3.345 3.336c0 .132.107.238.239.238h.728c.696 0 1.262-.564 1.262-1.258v-6.034c0-.247-.116-.457-.224-.634zm-7.982-.015v-1.304a.406.406 0 0 0-.407-.405H10.08V7.51a.406.406 0 0 0-.406-.405H8.386a.406.406 0 0 0-.406.405v5.548H6.046V3.805h5.829l5.546 9.254h-4.627z"/>
                <path d="M33 17.528a.43.43 0 0 1-.426.434h-6.107a.43.43 0 0 1-.426-.434v-6.203c0-.24.19-.433.426-.433h6.107a.43.43 0 0 1 .426.433v6.203zM33 8.686a.43.43 0 0 1-.426.433h-6.107a.43.43 0 0 1-.426-.433V2.483c0-.24.19-.433.426-.433h6.107a.43.43 0 0 1 .426.433v6.203z"/>
            </g>
            <g opacity=".328">
                <path d="M1080.306 280.313a17.485 17.485 0 0 1-2.709-3.016l-2.43-3.435a1.53 1.53 0 0 0-.772-.571l-4.746-1.552c-.767-.251-1.607.123-1.877.878a1.53 1.53 0 0 0 .967 1.96l2.842.93a1.74 1.74 0 0 1 1.046.945.558.558 0 0 1-.577.789l-4.594-.604a3.145 3.145 0 0 1-2.25-1.458l-3.612-5.784c-.441-.708-1.362-.932-2.055-.501-.694.431-.899 1.354-.457 2.061l5.308 8.506c.178.284.444.503.756.622l8.193 3.108a9.37 9.37 0 0 1 2.872 1.734l.898.791c.524.462 1.286.511 1.847.118l2.657-1.86c.283-.198.501-.482.597-.817a1.54 1.54 0 0 0-.466-1.577l-1.438-1.267zM1082.625 278.69a17.485 17.485 0 0 0-1.908-3.578l-2.396-3.458a1.53 1.53 0 0 1-.273-.921l.165-4.991c.027-.807.666-1.468 1.467-1.463a1.53 1.53 0 0 1 1.511 1.579l-.098 2.988a1.74 1.74 0 0 0 .53 1.306c.32.309.844.156.94-.272l1.002-4.523a3.145 3.145 0 0 0-.599-2.614l-4.201-5.372c-.514-.656-.41-1.598.232-2.103.643-.504 1.58-.38 2.094.276l6.177 7.898c.206.264.321.589.326.922l.119 8.763a9.371 9.371 0 0 0 .647 3.292l.436 1.113c.255.65.04 1.384-.521 1.777l-2.657 1.86a1.516 1.516 0 0 1-.972.282 1.54 1.54 0 0 1-1.322-.977l-.7-1.785zM1074.946 265.52l-1.166-6.512a1.524 1.524 0 0 0-1.73-1.243l-6.445 1.047a1.466 1.466 0 0 0-1.2 1.719l1.166 6.512a1.524 1.524 0 0 0 1.73 1.243l6.445-1.046c.224-.037.427-.122.6-.243.454-.318.706-.885.6-1.476z"/>
            </g>
            <path d="M261.784 187.654l12.45 1.118-10.037 11.147zM588.54 138.11l5.257 11.34-14.673-3.119zM886.33 106.706l-7.718 9.833-3.883-14.49zM965.5 306l7.5 10h-15zM530.045 312.23l12.315-2.143-6.81 13.366zM157 312.33l-1.495-12.41 12.99 7.5zM1159.784 204.654l12.45 1.118-10.037 11.147zM136.262 118.574l12.45 1.117-10.037 11.147zM1334.307 288.723l4.302-11.736 8.17 12.58zM1368.065 206.406l3.147-8.006 5.447 8.387zM1149.728 119.076l3.435 7.887-9.781-2.079zM1057.057 331.668l-.07 8.602-8.09-5.877zM793.065 147.406l3.147-8.006 5.447 8.387zM728.38 296.594l-5.467 6.641-2.588-9.659zM413.881 93.911l8.507-1.277-4.54 8.91zM310.057 301.668l-.07 8.602-8.09-5.877zM143.38 220.594l-5.467 6.641-2.588-9.659zM316.056 118.83l-5.468 6.641-2.588-9.66zM31.411 152.381l7.633 3.968-8.91 4.54z" opacity=".55"/>
        </g>
    </g>
</svg>
