<?xml version="1.0" encoding="UTF-8"?>
<svg width="80px" height="65px" viewBox="0 0 80 65" version="1.1" xmlns="http://www.w3.org/2000/svg" xmlns:xlink="http://www.w3.org/1999/xlink">
    <!-- Generator: Sketch 52.2 (67145) - http://www.bohemiancoding.com/sketch -->
    <title>Customers</title>
    <desc>Created with Sketch.</desc>
    <g id="New" stroke="none" stroke-width="1" fill="none" fill-rule="evenodd">
        <g id="About-Us" transform="translate(-326.000000, -899.000000)" fill-rule="nonzero">
            <g id="Customers" transform="translate(326.000000, 899.000000)">
                <path d="M11.4285714,34.9429364 C11.4321689,35.4780945 11.731938,35.9668461 12.2063534,36.2110532 C12.6807688,36.4552603 13.2511123,36.4144024 13.6861691,36.1050433 L20.30184,31.348706 C20.6792844,31.0811645 20.9037364,30.6462579 20.9037364,30.1824487 C20.9037364,29.7186396 20.6792844,29.283733 20.30184,29.0161915 L13.6861691,24.2598542 C13.2511123,23.950495 12.6807688,23.9096372 12.2063534,24.1538443 C11.731938,24.3980514 11.4321689,24.8868029 11.4285714,25.421961 L11.4285714,26.6919778 L1.74488319,26.6919778 C0.781210815,26.6919778 1.83621753e-16,27.4761336 0,28.4434388 L0,31.9961655 C1.83621753e-16,32.9634707 0.781210815,33.7476265 1.74488319,33.7476265 L11.4285714,33.7476265 L11.4285714,34.9429364 Z M78.2551168,26.6919778 L68.5714286,26.6919778 L68.5714286,25.421961 C68.5678311,24.8868029 68.268062,24.3980514 67.7936466,24.1538443 C67.3192312,23.9096372 66.7488877,23.950495 66.3138309,24.2598542 L59.69816,29.0161915 C59.3207156,29.283733 59.0962636,29.7186396 59.0962636,30.1824487 C59.0962636,30.6462579 59.3207156,31.0811645 59.69816,31.348706 L66.3138309,36.1050433 C66.7488877,36.4144024 67.3192312,36.4552603 67.7936466,36.2110532 C68.268062,35.9668461 68.5678311,35.4780945 68.5714286,34.9429364 L68.5714286,33.7061227 L78.2551168,33.7061227 C79.2187892,33.7061227 80,32.9219669 80,31.9546617 L80,28.4102358 C79.9819735,27.4559217 79.2060177,26.6918063 78.2551168,26.6919778 Z M72.1852388,3.05140419 L69.7043622,0.561175223 C69.37661,0.228628634 68.9299493,0.041503816 68.4639239,0.041503816 C67.9978985,0.041503816 67.5512378,0.228628634 67.2234856,0.561175223 L60.3762663,7.43420716 L59.5079595,6.56262702 C59.1284598,6.18694603 58.5723622,6.05418061 58.0649953,6.21812679 C57.5576283,6.38207296 57.1831277,6.81554387 57.0932396,7.34289876 L55.7701054,15.4029398 C55.6865878,15.8639037 55.8337007,16.3366632 56.1637536,16.6679603 C56.4938065,16.9992575 56.9647905,17.146925 57.4240232,17.0630925 L65.4537937,15.7349704 C65.979168,15.6447434 66.411011,15.268831 66.5743414,14.7595514 C66.7376719,14.2502718 66.6054051,13.6920778 66.231135,13.3111475 L65.3628282,12.4395674 L72.2100476,5.56653544 C72.545842,5.23328917 72.7327419,4.77766109 72.7280669,4.30369829 C72.7233918,3.8297355 72.5275409,3.37791131 72.1852388,3.05140419 Z M7.81476122,5.54163315 L14.6619806,12.4146651 L13.7936738,13.2862452 C13.4194037,13.6671755 13.2871369,14.2253695 13.4504673,14.7346491 C13.6137978,15.2439287 14.0456408,15.6198411 14.5710151,15.7100681 L22.633864,17.0215887 C23.0930967,17.1054212 23.5640806,16.9577537 23.8941335,16.6264565 C24.2241864,16.2951593 24.3712994,15.8223999 24.2877817,15.361436 L22.9646475,7.30139495 C22.8747594,6.77404006 22.5002588,6.34056915 21.9928918,6.17662297 C21.4855249,6.01267679 20.9294273,6.14544222 20.5499276,6.52112321 L19.6816208,7.39270334 L12.8344015,0.519671407 C12.5066493,0.187124817 12.0599886,0 11.5939632,0 C11.1279378,0 10.6812771,0.187124817 10.3535249,0.519671407 L7.87264834,3.00990037 C7.52591123,3.3318592 7.32402435,3.78116578 7.31311507,4.25516194 C7.30220579,4.7291581 7.48320625,5.18734361 7.81476122,5.52503162 L7.81476122,5.54163315 Z M12.7765144,59.845226 L19.6237337,52.9721941 L20.4920405,53.8437742 C20.8715402,54.2194552 21.4276378,54.3522207 21.9350047,54.1882745 C22.4423717,54.0243283 22.8168723,53.5908574 22.9067604,53.0635025 L24.2381642,44.9536569 C24.3216818,44.492693 24.1745689,44.0199335 23.844516,43.6886364 C23.514463,43.3573392 23.0434791,43.2096717 22.5842464,43.2935042 L14.5544759,44.6216263 C14.0291016,44.7118533 13.5972586,45.0877657 13.4339282,45.5970453 C13.2705977,46.1063249 13.4028645,46.6645189 13.7771346,47.0454492 L14.6454414,47.9170293 L7.79822204,54.7900613 C7.46692437,55.119049 7.28050233,55.5673935 7.28050233,56.0351757 C7.28050233,56.5029579 7.46692437,56.9513024 7.79822204,57.2802902 L10.2790986,59.7705192 C10.599596,60.1159802 11.0454488,60.3169551 11.5156066,60.3278939 C11.9857645,60.3388327 12.4404151,60.1588091 12.7765144,59.8286245 L12.7765144,59.845226 Z M65.3380194,47.9668339 L66.2063262,47.0952538 C66.5805963,46.7143235 66.7128631,46.1561295 66.5495327,45.6468499 C66.3862022,45.1375703 65.9543592,44.7616579 65.4289849,44.6714309 L57.366136,43.3433088 C56.9069033,43.2594763 56.4359194,43.4071438 56.1058665,43.7384409 C55.7758136,44.0697381 55.6287006,44.5424975 55.7122183,45.0034614 L57.0353525,53.0635025 C57.1252406,53.5908574 57.4997412,54.0243283 58.0071082,54.1882745 C58.5144751,54.3522207 59.0705727,54.2194552 59.4500724,53.8437742 L60.3183792,52.9721941 L67.1655985,59.845226 C67.4933507,60.1777726 67.9400114,60.3648975 68.4060368,60.3648975 C68.8720622,60.3648975 69.3187229,60.1777726 69.6464751,59.845226 L72.1273517,57.3549971 C72.4586493,57.0260093 72.6450714,56.5776648 72.6450714,56.1098826 C72.6450714,55.6421004 72.4586493,55.1937559 72.1273517,54.8647681 L65.3380194,47.9668339 Z" id="Shape-Copy" fill="#D7D8DA"></path>
                <path d="M40.5,2 C44.6421356,2 48,5.35786438 48,9.5 C48,13.6421356 44.6421356,17 40.5,17 C36.3578644,17 33,13.6421356 33,9.5 C33,5.35786438 36.3578644,2 40.5,2 Z" id="Path-Copy" fill="#17378E"></path>
                <path d="M51.2436753,39.0397009 L52.9581805,26.0554397 C53.1658398,24.2633152 52.5936921,22.4683382 51.3853612,21.1210935 C50.1770303,19.7738489 48.4472532,19.0022644 46.6302482,19.0000274 L44.3442413,19.0000274 C44.111631,19.0005675 43.8920086,19.1065609 43.7478916,19.2878356 L40.1366632,23.7611973 C40.0124237,23.917436 39.8881842,23.917436 39.7639447,23.7611973 L36.1527163,19.2878356 C36.0068032,19.1042856 35.7835982,18.9980388 35.5480841,19.0000274 L33.378034,19.0000274 C31.559585,18.9999217 29.8275677,19.7704931 28.6173954,21.118027 C27.4072231,22.465561 26.8339963,24.2618923 27.0418191,26.0554397 L28.7563243,39.0314778 C28.9776181,40.983081 30.2451509,42.6630726 32.0693778,43.4226085 L34.9103213,62.5330726 C35.0546643,63.9335287 36.2421936,64.9988832 37.6601557,65 L42.2404522,65 C43.6449922,64.9956093 44.8218855,63.9440198 44.9737214,62.5577419 L47.8312301,43.4966163 C49.7065368,42.7455247 51.0165014,41.0346104 51.2436753,39.0397009 Z" id="Path-Copy-2" fill="#17378E"></path>
            </g>
        </g>
    </g>
</svg>