<svg xmlns="http://www.w3.org/2000/svg" width="79" height="79" viewBox="0 0 79 79">
    <g fill="none" fill-rule="nonzero">
        <path fill="#D7D8DA" d="M76.07 56.146c-1.504-.115-4.627 1.598-5.494 2.026-3.057 1.548-7.275 3.97-10.055 5.896-.196.132-.457.313-.654.428a11.79 11.79 0 0 1-4.038 1.664c-8.077 1.73-19.849 1.927-19.849 1.927l-.686.033a.978.978 0 0 1-1.047-.84.984.984 0 0 1 .9-1.12l17.51-1.68c1.93-.214 3.466-2.026 3.254-4.068-.213-2.043-2.077-3.541-4.006-3.327l-15.565-.198c-1.063-.016-2.763-.28-3.777-.576-10.038-2.949-15.695-.182-18.704 1.103a3.625 3.625 0 0 0-3.368-1.746l-6.72.445c-2.24.148-3.924 2.026-3.76 4.2L1.09 75.334c.147 2.174 2.093 3.805 4.316 3.657l6.72-.445a3.572 3.572 0 0 0 3.074-2.174l29.495 1.285c3.286.345 6.36-.05 9.254-1.582l.85-.444 22.285-13.144c1.095-.642 1.88-1.762 1.913-3.014.065-1.499-.802-3.179-2.927-3.327zM7.875 75.433c-1.259 0-2.289-.988-2.289-2.224 0-1.235 1.03-2.223 2.29-2.223 1.258 0 2.288.988 2.288 2.223 0 1.236-1.03 2.224-2.289 2.224z"/>
        <path fill="#9B9B9B" d="M60.035 61.49c2.247-1.652 6.856-4.29 9.459-5.67.792-.408 1.617-.834 2.506-1.157-1.132-.8-2.345-.835-3.606-.324-2.474 1.039-7.033 3.354-9.362 4.682-.016.034-.032.068-.032.102a7.44 7.44 0 0 1 .34 1.583c.048.443.032.868.016 1.294.21-.17.436-.34.679-.51zM66 52.553c-1.129-.671-2.323-.701-3.548-.253-1.533.552-4.936 1.581-6.452 2.327A7.449 7.449 0 0 1 57.726 56c.097-.06.193-.134.306-.194l1.113-.567c1.613-.82 5.08-1.955 6.855-2.686z"/>
        <path fill="#17378E" d="M63.71 24C67.988 22.097 71 17.658 71 12.5 71 5.592 65.617 0 59 0S47 5.608 47 12.5c0 .067.016.134.016.201 7.13.784 13.25 5.14 16.694 11.299zM45 53c9.943 0 18-8.057 18-18s-8.057-18-18-18-18 8.057-18 18 8.057 18 18 18zm-6.287-10.886c.166-.596.331-1.191.513-1.77.215-.679.397-.761 1.026-.447 1.075.563 2.2.86 3.391 1.01.761.099 1.522.016 2.217-.299 1.324-.579 1.539-2.117.414-3.027-.38-.314-.81-.546-1.257-.745-1.159-.512-2.366-.893-3.475-1.555-1.77-1.059-2.911-2.531-2.78-4.682.15-2.448 1.54-3.97 3.773-4.781.926-.33.926-.33.943-1.29v-.977c.016-.727.149-.86.86-.876h.679c1.538 0 1.538 0 1.555 1.538 0 1.092 0 1.092 1.092 1.274.827.132 1.637.38 2.398.712.43.182.58.48.464.926-.199.662-.38 1.34-.596 2.002-.198.629-.397.711-1.009.43a7.781 7.781 0 0 0-3.805-.761c-.348.017-.695.066-1.01.215-1.157.496-1.34 1.77-.363 2.564.496.397 1.058.679 1.654.927 1.026.43 2.052.827 3.011 1.356 3.094 1.705 3.921 5.592 1.737 8.223A5.709 5.709 0 0 1 47.151 44c-.513.149-.761.414-.728.96.016.529 0 1.058 0 1.588 0 .48-.248.728-.712.744a29.83 29.83 0 0 1-1.72 0c-.497-.016-.745-.298-.745-.777 0-.38 0-.778-.016-1.158-.017-.86-.033-.894-.86-1.026-1.06-.166-2.085-.414-3.061-.877-.745-.347-.81-.546-.596-1.34z"/>
    </g>
</svg>
