<svg xmlns="http://www.w3.org/2000/svg" width="83" height="83" viewBox="0 0 83 83">
    <g fill="none" fill-rule="nonzero">
        <circle cx="41.5" cy="41.5" r="41.5" fill="#17378E"/>
        <path fill="#F6F6F9" d="M34.014 21.218c.397-8.284 7.29-8.218 8.02-8.218.662 0 7.621-.066 8.019 8.218 0 0 1.325 12.394-7.954 12.527h-.066-.066c-9.345-.067-7.953-12.527-7.953-12.527zM59 48.392v-.199 7.357h-5.368c-1.856-4.64-6.363-7.887-11.599-7.887-5.302 0-9.809 3.247-11.598 7.887h-5.369v-7.357-1.657c.067-2.651.597-4.507 3.314-6.23 3.645-2.253 7.688-4.242 7.688-4.242l3.248 10.207 1.856-5.368c-3.314-4.64.265-4.839.861-4.839.663 0 4.176.265.862 4.839l1.855 5.368 3.248-10.207s4.043 1.989 7.688 4.242c2.718 1.723 3.248 3.579 3.314 6.23v1.856zm-34-1.856c0-.066 0-.066 0 0zm33.934 0c0-.066 0-.066 0 0zm-6.43 13.72c0 2.783-1.126 5.434-3.114 7.422a11.293 11.293 0 0 1-2.254 1.724c-1.59.927-3.38 1.391-5.235 1.391-1.724 0-3.447-.397-4.905-1.193-.928-.464-1.79-1.126-2.518-1.855-1.525-1.525-2.519-3.38-2.917-5.369a10.79 10.79 0 0 1-.198-2.054c0-2.784 1.126-5.435 3.115-7.423a11.293 11.293 0 0 1 2.253-1.724c1.59-.927 3.38-1.391 5.236-1.391 1.723 0 3.446.397 4.904 1.193.928.464 1.79 1.126 2.519 1.855 1.524 1.525 2.518 3.38 2.916 5.369.133.663.199 1.325.199 2.054zm-5.566 2.385h3.446c.199-.795.331-1.59.331-2.452 0-.53-.066-1.06-.132-1.59l-.199-.796h-3.446c.066.73.132 1.525.132 2.32.066.861 0 1.723-.132 2.518zm-1.79-10.538c.663 1.26 1.127 2.585 1.458 3.977H49.655a8.528 8.528 0 0 0-4.507-3.977zm-5.898 3.91h5.5c-.397-1.59-1.126-3.114-1.988-4.506-.265 0-.53-.066-.795-.066h-.663a17.633 17.633 0 0 0-2.054 4.573zm-5.833 5.833l.199.795h3.446c-.066-.729-.132-1.524-.132-2.32 0-.86.066-1.723.199-2.518h-3.447c-.199.795-.331 1.59-.331 2.452-.133.53-.066 1.06.066 1.591zm5.501-9.809c-1.988.73-3.579 2.187-4.64 3.977h3.05a20.756 20.756 0 0 1 1.59-3.977zm-.066 16.37c-.663-1.259-1.127-2.584-1.458-3.976H34.345c.994 1.79 2.585 3.247 4.507 3.976zm0-5.766h6.296c.133-.662.199-1.259.199-1.922l-.066-.066v-.53c0-.795-.067-1.525-.2-2.32h-6.295a9.464 9.464 0 0 0-.2 1.922l.067.066v.53c.066.796.066 1.591.199 2.32zm5.898 1.79h-5.5c.397 1.59 1.126 3.115 1.988 4.507.265 0 .53.066.795.066h.663a17.633 17.633 0 0 0 2.054-4.573zm.266 3.976c1.988-.729 3.579-2.187 4.639-3.976h-3.048a14.69 14.69 0 0 1-1.591 3.976z"/>
    </g>
</svg>
