<svg xmlns="http://www.w3.org/2000/svg" width="68" height="85" viewBox="0 0 68 85">
    <g fill="none" fill-rule="nonzero">
        <path fill="#17378E" d="M29.5 0C13.245 0 0 13.02 0 29s13.245 29 29.5 29C45.755 58 59 44.98 59 29S45.755 0 29.5 0zm16.737 24.62c-1.566-1.42-3.01-2.84-4.576-4.26l6.502-6.393c.723 2.604.12 6.392-1.926 10.653zM26.129 29l-5.298 5.208c-1.807-1.775-3.733-3.432-5.54-5.09a42.275 42.275 0 0 1 4.817-6.036L26.128 29zm-2.77-9.351c2.047-1.894 4.214-3.433 6.261-4.735 1.686 1.894 3.492 3.67 5.178 5.445L29.5 25.567l-6.14-5.918zM29.5 32.314l6.14 6.037c-2.046 1.894-4.213 3.433-6.26 4.735-1.686-1.894-3.492-3.67-5.178-5.445l5.298-5.327zM32.871 29l5.298-5.208c1.807 1.775 3.733 3.432 5.54 5.09-1.325 2.012-2.89 4.024-4.817 6.155L32.872 29zm11.92-18.347l-6.501 6.392c-1.445-1.42-2.89-2.96-4.335-4.498 4.335-2.012 8.188-2.604 10.837-1.894zm-6.983-4.498c-2.288.474-4.696 1.42-7.224 2.723-1.204-1.302-2.288-2.723-3.492-4.025.843-.118 5.659-.473 10.716 1.302zm-15.894-.237c1.445 1.776 3.01 3.67 4.576 5.445a48.812 48.812 0 0 0-6.382 4.972l-6.14-6.037c2.287-1.894 4.936-3.433 7.946-4.38zm-11.438 7.694l6.14 6.037a48.242 48.242 0 0 0-5.057 6.273c-1.806-1.538-3.612-2.959-5.539-4.498a24.07 24.07 0 0 1 4.456-7.812zM6.382 37.167c-.964-2.604-1.806-7.102-1.325-10.534 1.445 1.065 2.77 2.249 4.094 3.432-1.324 2.486-2.288 4.853-2.77 7.102zm6.381-3.787c1.566 1.42 3.01 2.84 4.576 4.26l-6.502 6.393c-.723-2.604-.12-6.392 1.926-10.653zm1.445 13.967l6.502-6.392c1.445 1.42 2.89 2.96 4.335 4.498-4.335 2.012-8.188 2.604-10.837 1.894zm6.984 4.498c2.288-.474 4.696-1.42 7.224-2.723 1.204 1.302 2.288 2.723 3.492 4.025-3.732.592-7.826 0-10.716-1.302zm16.014.237c-1.445-1.776-3.01-3.67-4.575-5.445a48.812 48.812 0 0 0 6.381-4.972l6.141 6.037a24.715 24.715 0 0 1-7.947 4.38zm11.318-7.694l-6.14-6.037a48.242 48.242 0 0 0 5.057-6.273c1.806 1.538 3.612 2.959 5.539 4.498-.964 2.84-2.529 5.444-4.456 7.812zm1.445-16.572c1.325-2.485 2.168-4.853 2.77-7.102.963 2.604 1.806 8.168 1.324 10.535-1.324-1.065-2.77-2.249-4.094-3.433z"/>
        <path fill="#D7D8DA" d="M56.82 55.374c14.907-14.754 14.907-38.907 0-53.66-.962-.952-2.405-.952-3.366 0-.962.952-.962 2.38 0 3.331 13.103 12.97 13.103 34.029 0 46.879-13.104 12.968-34.383 12.968-47.367 0-.961-.952-2.404-.952-3.366 0-.961.951-.961 2.38 0 3.331 6.853 6.782 15.749 10.47 24.645 11.065v4.521H12.46c-.962 0-1.803.476-2.164 1.31L5.727 81.55c-.722 1.308.24 3.331 2.164 3.45H51.29c1.923 0 2.885-2.023 2.164-3.45l-4.569-9.4c-.36-.833-1.202-1.309-2.164-1.309H32.055v-4.52c9.016-.477 17.792-4.165 24.765-10.947zM45.279 75.72l2.284 4.64H11.738l2.284-4.64h31.257z"/>
    </g>
</svg>
