<svg xmlns="http://www.w3.org/2000/svg" width="98" height="90" viewBox="0 0 98 90">
    <g fill="none" fill-rule="nonzero">
        <path fill="#D7D8DA" d="M98 69a5 5 0 0 1-5 5H74.25a5 5 0 0 1 0-10H93a5 5 0 0 1 5 5zm-5-21H74.25a5 5 0 0 0 0 10H93a5 5 0 0 0 0-10zm0-16H74.25a5 5 0 0 0 0 10H93a5 5 0 0 0 0-10zM58.37 64H39.62a5 5 0 0 0 0 10h18.76a5 5 0 0 0 0-10h-.01zm0-16H39.62a5 5 0 0 0 0 10h18.76a5 5 0 0 0 0-10h-.01zM93 80H74.25a5 5 0 0 0 0 10H93a5 5 0 0 0 0-10zm-29.63 5a5 5 0 0 0-5-5H39.62a5 5 0 0 0 0 10h18.76a5 5 0 0 0 5-5h-.01zm13.14-62.77a4 4 0 0 0 2.77 1.19c.198 0 .395-.017.59-.05a3.71 3.71 0 0 0 3-3.06L85.46 4.8A3.72 3.72 0 0 0 81.19.51L65.73 3.06a3.73 3.73 0 0 0-3.11 3.43 3.8 3.8 0 0 0 1.15 2.95l2.93 2.93-16 16-8.54-8.54a4.88 4.88 0 0 0-6.9 0L8.51 46.59a4.88 4.88 0 1 0 6.9 6.9l23.26-23.26 8.54 8.54a4.88 4.88 0 0 0 6.9 0l19.5-19.54 2.9 3zM5 74h18.75a5 5 0 0 0 0-10H5a5 5 0 0 0 0 10zm23.75 11a5 5 0 0 0-5-5H5a5 5 0 0 0 0 10h18.75a5 5 0 0 0 5-5z"/>
        <path fill="#17378E" d="M76.499 21.77a4 4 0 0 0 2.77 1.19c.197 0 .395-.017.59-.05a3.71 3.71 0 0 0 3-3.06l2.59-15.51a3.72 3.72 0 0 0-4.27-4.29L65.719 2.6a3.73 3.73 0 0 0-3.11 3.43 3.8 3.8 0 0 0 1.15 2.95l2.93 2.93-16 16-8.54-8.54a4.88 4.88 0 0 0-6.9 0L8.499 46.13a4.88 4.88 0 1 0 6.9 6.9l23.26-23.26 8.54 8.54a4.88 4.88 0 0 0 6.9 0l19.5-19.54 2.9 3z"/>
    </g>
</svg>
