<?xml version="1.0" encoding="UTF-8"?>
<svg width="63px" height="71px" viewBox="0 0 63 71" version="1.1" xmlns="http://www.w3.org/2000/svg" xmlns:xlink="http://www.w3.org/1999/xlink">
    <!-- Generator: Sketch 52.2 (67145) - http://www.bohemiancoding.com/sketch -->
    <title>Group 2</title>
    <desc>Created with Sketch.</desc>
    <g id="New" stroke="none" stroke-width="1" fill="none" fill-rule="evenodd">
        <g id="About-Us" transform="translate(-335.000000, -1152.000000)" fill-rule="nonzero">
            <g id="Group-2" transform="translate(336.000000, 1153.000000)">
                <path d="M58.9929198,34.3426732 C58.0808652,33.3819949 57.0542994,33 56.0107321,33 C54.027048,33 51.9812903,34.3787115 50.540045,35.7847661 C50.5156655,35.8084237 43.5846687,41.6331858 41.2287092,43.9875987 C40.8013242,44.4142119 39.968821,44.760223 39.3690892,44.760223 C37.0677547,47.3741559 33.7212788,49.0241636 30.0001995,49.0241636 C26.2791201,49.0241636 22.9323708,47.3741559 20.6310343,44.760223 L20.4268719,44.760223 C19.8271443,44.760223 18.9739506,44.4373196 18.5211546,44.038654 L9.25776484,35.880937 C7.84355866,34.5022821 5.84238525,33.0494077 3.90159153,33.0489123 C3.03916695,33.0489123 2.18863434,33.3363294 1.40673465,34.0444725 C-1.3301844,36.5219586 0.402157,39.7478111 2.57252513,41.8540292 C2.61759306,41.89645 12.9772705,51.9524199 12.9772705,51.9524199 C12.9772705,51.9524199 17.0515089,56.3302451 17.3415733,58.9839038 L17.3415733,65.3234201 C17.3415733,67.9061564 19.4077418,70 21.9569518,70 L38.6203706,70 C41.1693073,70 43.2357492,67.9061564 43.2357492,65.3234201 L43.2357492,58.9839038 C43.5241813,56.3302451 47.3473439,51.9524199 47.3473439,51.9524199 L57.4943894,41.7503195 C59.3471621,39.8192792 61.205154,36.675628 58.9929198,34.3426732 Z" id="Shape" fill="#17378E"></path>
                <circle id="Oval" fill="#17378E" cx="30.5" cy="36.5" r="10.5"></circle>
                <circle id="Oval-Copy" stroke="#D7D8DA" fill="#D7D8DA" cx="5.5" cy="23.5" r="5.5"></circle>
                <circle id="Oval-Copy-2" stroke="#D7D8DA" fill="#D7D8DA" cx="30.5" cy="5.5" r="5.5"></circle>
                <path d="M15.4963084,6 C14.4988855,6 13.4888679,6.27126016 12.5811495,6.84001494 C10.0073187,8.45190011 9.22665057,11.8432003 10.8400728,14.41918 C11.8845209,16.0863948 13.673887,17 15.5040629,17 C16.5014879,17 17.5110103,16.7287398 18.418948,16.1599851 C20.9927777,14.5480999 21.7732277,11.1567997 20.1600247,8.58082 C19.1155775,6.91360522 17.3264863,6 15.4963084,6 Z" id="Shape-Copy-4" stroke="#D7D8DA" fill="#D7D8DA"></path>
                <path d="M42.5798679,15.1593933 C43.4881341,15.7287263 44.4978713,16 45.4958384,16 C47.3257271,16 49.1143176,15.0868443 50.1589792,13.4201514 C51.7735475,10.8445926 50.9931039,7.45306765 48.4203858,5.84060666 C47.5121237,5.27121813 46.5018368,5 45.5038656,5 C43.6739768,5 41.8853906,5.91310067 40.840729,7.5798486 C39.226765,10.1554079 40.0066043,13.5463826 42.5798679,15.1593933 Z" id="Shape-Copy-5" stroke="#D7D8DA" fill="#D7D8DA"></path>
                <circle id="Oval-Copy-3" stroke="#D7D8DA" fill="#D7D8DA" cx="55.5" cy="23.5" r="5.5"></circle>
            </g>
        </g>
    </g>
</svg>