<svg xmlns="http://www.w3.org/2000/svg" width="6" height="11" viewBox="0 0 6 11">
    <path fill="#7E7E7E" fill-rule="evenodd" d="M3.226 4.84c.548.147.986.303 1.316.47.453.224.798.493 1.033.806.283.381.425.846.425 1.393 0 .597-.203 1.086-.608 1.467-.359.342-.85.577-1.472.704V11H2.15V9.68c-.603-.137-1.093-.391-1.47-.763C.263 8.507.037 7.98 0 7.333h1.302c.019.391.16.695.424.91.302.254.741.381 1.316.381.576 0 1.005-.127 1.288-.381a.933.933 0 0 0 .312-.704c0-.333-.114-.607-.34-.822-.283-.283-.76-.508-1.43-.674-.886-.215-1.551-.509-1.995-.88A2.056 2.056 0 0 1 .113 3.52c0-.567.198-1.051.595-1.452.367-.372.849-.62 1.443-.748V0H3.92v1.35c.604.146 1.075.44 1.415.88.311.41.476.89.495 1.437H4.528c-.028-.86-.523-1.291-1.486-1.291-.49 0-.877.105-1.16.315a.984.984 0 0 0-.424.829c0 .293.132.543.396.748.264.205.721.396 1.372.572z"/>
</svg>
